<?xml version="1.0" standalone="no"?>
<!DOCTYPE svg PUBLIC "-//W3C//DTD SVG 20010904//EN"
 "http://www.w3.org/TR/2001/REC-SVG-20010904/DTD/svg10.dtd">
<svg version="1.0" xmlns="http://www.w3.org/2000/svg"
 width="1280.000000pt" height="1280.000000pt" viewBox="0 0 1280.000000 1280.000000"
 preserveAspectRatio="xMidYMid meet">
<g transform="translate(0.000000,1280.000000) scale(0.100000,-0.100000)"
fill="#000000" stroke="none">
<path d="M6135 12454 c-473 -29 -821 -80 -1199 -175 -2211 -554 -3929 -2318
-4426 -4544 -142 -633 -178 -1325 -104 -1990 146 -1319 744 -2572 1684 -3529
691 -704 1482 -1200 2400 -1506 444 -148 846 -234 1345 -287 241 -25 877 -25
1120 0 495 52 885 134 1325 278 1572 516 2886 1684 3585 3189 300 646 475
1305 541 2040 23 251 23 749 0 1000 -114 1269 -584 2403 -1402 3385 -141 169
-553 582 -719 719 -741 616 -1540 1023 -2450 1250 -286 71 -655 131 -955 156
-131 11 -642 20 -745 14z m535 -584 c1402 -80 2652 -646 3625 -1641 397 -406
705 -837 964 -1349 624 -1230 755 -2665 365 -3990 -431 -1462 -1472 -2690
-2849 -3361 -1066 -519 -2254 -674 -3425 -448 -899 174 -1730 573 -2460 1179
-160 133 -526 499 -658 658 -625 753 -1026 1601 -1196 2532 -112 612 -115
1287 -10 1898 332 1931 1679 3538 3528 4209 662 240 1420 352 2116 313z"/>
<path d="M3950 10282 c0 -4 6 -16 14 -27 7 -11 243 -393 523 -850 1009 -1643
1354 -2206 1578 -2570 126 -203 228 -377 227 -385 0 -8 -91 -168 -203 -355
-111 -187 -513 -862 -892 -1500 -379 -638 -808 -1358 -952 -1601 -298 -500
-298 -501 -285 -509 10 -6 53 18 2775 1590 193 111 571 329 840 485 270 156
650 375 845 488 195 113 571 330 835 482 1550 895 1468 846 1462 863 -3 11
-142 93 -1157 679 -606 350 -5245 3028 -5425 3131 -138 80 -185 100 -185 79z"/>
</g>
</svg>
