<?xml version="1.0" standalone="no"?><!DOCTYPE svg PUBLIC "-//W3C//DTD SVG 1.1//EN" "http://www.w3.org/Graphics/SVG/1.1/DTD/svg11.dtd"><svg class="icon" height="512" viewBox="0 0 1024 1024" version="1.1" xmlns="http://www.w3.org/2000/svg"><path d="M171.76041 322.67505c-3.282766 0-6.565533-1.255597-9.064446-3.765767-4.984524-5.006014-4.967128-13.105482 0.038886-18.090007l114.263393-113.7763c5.004991-4.985548 13.104459-4.968152 18.090007 0.038886 4.984524 5.006014 4.967128 13.105482-0.038886 18.090007L180.784948 318.948169C178.289104 321.43378 175.024757 322.67505 171.76041 322.67505zM234.421542 385.084449c-3.281743 0-6.562463-1.254573-9.061376-3.76372-4.986571-5.004991-4.971222-13.103436 0.033769-18.090007l45.702901-45.533033c5.003967-4.985548 13.103436-4.971222 18.090007 0.033769 4.985548 5.004991 4.970198 13.103436-0.033769 18.090007l-45.702901 45.533033C240.954329 383.841132 237.687936 385.084449 234.421542 385.084449zM581.58124 730.727607c-3.282766 0-6.564509-1.25662-9.063423-3.765767-4.984524-5.007037-4.967128-13.105482 0.037862-18.090007l45.708018-45.51359c5.007037-4.984524 13.105482-4.967128 18.090007 0.037862 4.984524 5.007037 4.967128 13.105482-0.037862 18.090007l-45.708018 45.51359C588.110957 729.485313 584.845587 730.727607 581.58124 730.727607zM646.891711 795.763832c-3.28379 0-6.565533-1.25662-9.064446-3.76679-4.984524-5.007037-4.967128-13.106506 0.039909-18.090007l114.293069-113.77937c5.009084-4.983501 13.107529-4.966105 18.090007 0.039909 4.984524 5.007037 4.967128 13.106506-0.039909 18.090007l-114.293069 113.77937C653.420405 794.521538 650.156058 795.763832 646.891711 795.763832zM132.988362 852.178703c-9.857509 0.001023-19.594267-4.085038-27.262924-11.821233-11.177574-11.274788-14.788821-27.265994-9.219989-40.778752 1.086751-2.752694 23.327288-59.100026 45.558615-115.006314 13.325493-33.511231 24.041556-60.312644 31.850405-79.661318 15.675004-38.835494 15.925714-39.08518 18.320251-41.47153 5.002944-4.986571 13.102413-4.973268 18.088984 0.031722 4.219091 4.233418 4.858658 10.68127 1.924839 15.587-5.230118 10.988262-57.647955 142.994762-91.986017 230.010581-0.029676 0.075725-0.060375 0.150426-0.091074 0.225127-1.883907 4.52199 0.511653 9.813506 3.722788 13.051247 1.452071 1.466398 6.686283 6.039553 13.056364 3.454682 0.076748-0.031722 0.153496-0.062422 0.231267-0.092098 87.862094-33.750685 221.145679-85.276199 232.225015-90.426499 4.9088-2.87549 11.320836-2.200108 15.523555 2.016937 4.985548 5.004991 4.969175 13.104459-0.035816 18.090007-2.411933 2.402723-2.664689 2.653433-41.889039 18.070564-19.531845 7.676843-46.591131 18.21178-80.425727 31.3101-56.446593 21.852704-113.341395 43.713594-116.122741 44.782949C142.068158 851.317079 137.515469 852.178703 132.988362 852.178703zM231.615637 815.811424c-3.26537 0-6.53074-1.242294-9.026584-3.728928l-88.007403-87.658456c-5.004991-4.985548-5.021364-13.083993-0.035816-18.090007 4.986571-5.007037 13.085016-5.02034 18.090007-0.035816l88.007403 87.658456c5.004991 4.985548 5.021364 13.083993 0.035816 18.090007C238.179123 814.555827 234.89738 815.811424 231.615637 815.811424zM376.588449 759.836575c-3.264347 0-6.529717-1.242294-9.024537-3.726881l-176.043459-175.261653c-2.410909-2.400676-3.76679-5.661953-3.76679-9.064446 0-3.40147 1.354857-6.664793 3.76679-9.064446L709.632661 46.858214c11.821233-11.762905 27.517727-18.23941 44.198641-18.23941 16.682961 0 32.378431 6.476505 44.195571 18.23634l100.333126 99.924827c13.239536 13.167904 20.534685 30.716582 20.536732 49.40727 0.00307 18.695804-7.29208 36.250622-20.539802 49.433876L385.61401 756.110717C383.118166 758.595304 379.853819 759.836575 376.588449 759.836575zM218.674906 571.784618 376.588449 728.996173l503.721453-501.507018c8.389064-8.347109 13.007245-19.462261 13.005198-31.298843-0.001023-11.831466-4.618181-22.939455-13.001105-31.276331l-100.334149-99.926874c-6.988158-6.952342-16.274662-10.784624-26.148543-10.784624s-19.160385 3.831258-26.152637 10.787694L218.674906 571.784618zM271.028275 423.493224c-3.264347 0-6.528694-1.24127-9.024537-3.725858L94.946954 253.458619c-2.410909-2.400676-3.76679-5.662977-3.76679-9.064446 0-3.402493 1.354857-6.664793 3.76679-9.06547L304.223305 26.969235c4.990664-4.968152 13.059434-4.968152 18.050098 0l167.056784 166.339446c5.006014 4.984524 5.02341 13.083993 0.038886 18.090007-4.984524 5.006014-13.085016 5.02341-18.090007 0.038886L313.247842 54.083779 122.101407 244.392126l157.951405 157.2443c5.007037 4.984524 5.024433 13.08297 0.040932 18.090007C277.593807 422.236604 274.311041 423.493224 271.028275 423.493224zM711.231065 861.772198c-3.264347 0-6.529717-1.242294-9.024537-3.726881L529.752828 686.345794c-5.007037-4.984524-5.024433-13.083993-0.039909-18.090007 4.984524-5.007037 13.08297-5.024433 18.090007-0.039909l163.42814 162.714895 191.152575-190.3063L739.031225 477.985302c-5.007037-4.984524-5.024433-13.08297-0.039909-18.088984 4.984524-5.007037 13.08297-5.02341 18.090007-0.039909l172.45677 171.703617c2.410909 2.400676 3.76679 5.662977 3.76679 9.064446 0 3.402493-1.354857 6.664793-3.76679 9.064446L720.256626 858.045317C717.760782 860.529905 714.496435 861.772198 711.231065 861.772198zM301.155433 684.706457c-3.282766 0-6.565533-1.25662-9.064446-3.76679-4.984524-5.007037-4.966105-13.105482 0.039909-18.090007L707.079512 249.720482c5.004991-4.984524 13.105482-4.967128 18.090007 0.039909 4.984524 5.006014 4.967128 13.105482-0.039909 18.090007l-414.948617 413.129178C307.684126 683.464163 304.419779 684.706457 301.155433 684.706457z" /></svg>